<svg width="275.67" height="24.09" viewBox="0 0 275.67 24.09" xmlns="http://www.w3.org/2000/svg"><g id="svgGroup" stroke-linecap="round" fill-rule="evenodd" font-size="9pt" stroke="#000" stroke-width="0.25mm" fill="#000" style="stroke:#000;stroke-width:0.25mm;fill:#000"><path d="M 16.08 23.67 L 16.08 10.92 L 12.24 19.02 A 4.653 4.653 0 0 1 11.795 19.729 Q 11.089 20.64 10.155 20.64 Q 9.154 20.64 8.415 19.535 A 5.258 5.258 0 0 1 8.07 18.93 L 4.17 10.92 L 4.17 23.67 L 0 23.67 L 0 2.31 L 4.11 2.31 L 10.14 14.64 L 16.14 2.31 L 20.25 2.31 L 20.25 23.67 L 16.08 23.67 Z M 139.98 12.18 L 139.98 23.67 L 136.08 23.67 L 136.08 13.02 A 10.657 10.657 0 0 0 136.057 12.285 Q 136.008 11.584 135.858 11.142 A 1.794 1.794 0 0 0 135.705 10.8 A 1.228 1.228 0 0 0 134.909 10.227 Q 134.68 10.17 134.4 10.17 L 130.89 11.64 L 130.89 23.67 L 126.99 23.67 L 126.99 13.02 Q 126.99 10.248 125.117 10.172 A 2.642 2.642 0 0 0 125.01 10.17 L 121.8 11.64 L 121.8 23.67 L 117.9 23.67 L 117.9 6.54 L 120.81 6.54 L 121.71 8.58 L 126.21 6.36 A 3.735 3.735 0 0 1 128.178 6.876 Q 129.121 7.444 129.75 8.64 L 135.33 6.36 A 5.492 5.492 0 0 1 136.738 6.53 A 3.673 3.673 0 0 1 138.825 7.935 A 5.527 5.527 0 0 1 139.673 9.718 Q 139.98 10.803 139.98 12.18 Z M 69.78 12.06 L 69.78 23.67 L 65.88 23.67 L 65.88 12.93 A 5.174 5.174 0 0 0 65.791 11.923 Q 65.441 10.17 63.72 10.17 L 60 11.64 L 60 23.67 L 56.1 23.67 L 56.1 1.11 L 60 1.11 L 60 8.58 L 64.95 6.36 A 7.268 7.268 0 0 1 66.313 6.479 Q 67.898 6.782 68.685 7.86 A 5.117 5.117 0 0 1 69.434 9.402 Q 69.78 10.541 69.78 12.06 Z M 162.24 15.39 L 166.11 15.39 A 13.073 13.073 0 0 1 165.896 17.837 Q 165.63 19.228 165.036 20.315 A 6.619 6.619 0 0 1 164.07 21.66 A 6.64 6.64 0 0 1 160.669 23.591 A 10.119 10.119 0 0 1 158.31 23.85 Q 150.12 23.85 150.12 14.22 L 150.12 12.42 A 20.999 20.999 0 0 1 150.35 9.18 Q 151.102 4.381 154.32 2.91 Q 155.841 2.191 157.949 2.135 A 13.564 13.564 0 0 1 158.31 2.13 A 10.174 10.174 0 0 1 160.784 2.415 A 7.318 7.318 0 0 1 163.875 4.005 A 6.059 6.059 0 0 1 165.789 7.276 A 9.363 9.363 0 0 1 166.02 9.42 L 162.12 9.42 Q 161.894 8.207 161.429 7.403 A 3.58 3.58 0 0 0 160.95 6.75 Q 160.274 6.026 158.977 5.884 A 6.156 6.156 0 0 0 158.31 5.85 Q 156.21 5.85 155.19 7.17 Q 154.47 8.1 154.35 10.35 Q 154.29 11.07 154.29 12.3 L 154.29 14.16 Q 154.29 16.759 154.835 18.115 A 3.222 3.222 0 0 0 155.25 18.87 A 3.134 3.134 0 0 0 156.915 19.953 Q 157.543 20.13 158.325 20.13 A 5.878 5.878 0 0 0 159.342 20.049 Q 159.881 19.953 160.297 19.748 A 2.335 2.335 0 0 0 161.205 18.975 Q 161.926 17.928 162.19 15.833 A 16.403 16.403 0 0 0 162.24 15.39 Z M 53.28 18.93 L 53.28 19.38 A 5.01 5.01 0 0 1 52.916 20.94 A 4.05 4.05 0 0 1 51.375 22.77 A 6.645 6.645 0 0 1 49.095 23.707 Q 48.158 23.91 47.07 23.91 A 16.707 16.707 0 0 1 45.308 23.824 Q 43.461 23.627 42.355 22.983 A 3.747 3.747 0 0 1 41.73 22.53 A 4.023 4.023 0 0 1 40.539 20.564 Q 40.32 19.781 40.32 18.81 L 40.32 18.45 L 43.86 18.45 Q 43.86 19.217 44.082 19.715 A 1.489 1.489 0 0 0 44.58 20.34 A 2.101 2.101 0 0 0 45.124 20.606 Q 45.683 20.795 46.543 20.838 A 10.663 10.663 0 0 0 47.07 20.85 Q 49.416 20.85 49.469 19.187 A 2.44 2.44 0 0 0 49.47 19.11 Q 49.47 18.328 49.222 17.829 A 1.466 1.466 0 0 0 48.63 17.19 A 2.373 2.373 0 0 0 48.233 16.997 Q 47.968 16.896 47.64 16.83 L 44.61 16.32 A 5.539 5.539 0 0 1 42.786 15.725 Q 41.253 14.876 40.82 13.002 A 7.264 7.264 0 0 1 40.65 11.37 A 5.256 5.256 0 0 1 40.897 9.72 A 4.241 4.241 0 0 1 42.405 7.635 A 5.944 5.944 0 0 1 42.432 7.614 Q 43.525 6.793 44.982 6.485 A 9.07 9.07 0 0 1 46.86 6.3 A 10.36 10.36 0 0 1 49.181 6.536 Q 52.376 7.274 52.905 10.314 A 7.568 7.568 0 0 1 53.01 11.61 L 53.01 12 L 49.62 12 A 4.662 4.662 0 0 0 49.545 11.324 Q 49.392 10.523 48.946 10.14 A 1.347 1.347 0 0 0 48.87 10.08 A 2.341 2.341 0 0 0 48.16 9.731 Q 47.836 9.632 47.445 9.594 A 5.262 5.262 0 0 0 46.935 9.57 A 5.013 5.013 0 0 0 46.25 9.614 Q 45.503 9.717 45.06 10.065 Q 44.43 10.56 44.43 11.16 A 3.151 3.151 0 0 0 44.503 11.87 Q 44.748 12.925 45.81 13.11 L 49.44 13.77 A 5.145 5.145 0 0 1 51.339 14.497 Q 53.259 15.76 53.28 18.862 A 10.163 10.163 0 0 1 53.28 18.93 Z M 205.08 18.93 L 205.08 19.38 A 5.01 5.01 0 0 1 204.716 20.94 A 4.05 4.05 0 0 1 203.175 22.77 A 6.645 6.645 0 0 1 200.895 23.707 Q 199.958 23.91 198.87 23.91 A 16.707 16.707 0 0 1 197.108 23.824 Q 195.261 23.627 194.155 22.983 A 3.747 3.747 0 0 1 193.53 22.53 A 4.023 4.023 0 0 1 192.339 20.564 Q 192.12 19.781 192.12 18.81 L 192.12 18.45 L 195.66 18.45 Q 195.66 19.217 195.882 19.715 A 1.489 1.489 0 0 0 196.38 20.34 A 2.101 2.101 0 0 0 196.924 20.606 Q 197.483 20.795 198.343 20.838 A 10.663 10.663 0 0 0 198.87 20.85 Q 201.216 20.85 201.269 19.187 A 2.44 2.44 0 0 0 201.27 19.11 Q 201.27 18.328 201.022 17.829 A 1.466 1.466 0 0 0 200.43 17.19 A 2.373 2.373 0 0 0 200.033 16.997 Q 199.768 16.896 199.44 16.83 L 196.41 16.32 A 5.539 5.539 0 0 1 194.586 15.725 Q 193.053 14.876 192.62 13.002 A 7.264 7.264 0 0 1 192.45 11.37 A 5.256 5.256 0 0 1 192.697 9.72 A 4.241 4.241 0 0 1 194.205 7.635 A 5.944 5.944 0 0 1 194.232 7.614 Q 195.325 6.793 196.782 6.485 A 9.07 9.07 0 0 1 198.66 6.3 A 10.36 10.36 0 0 1 200.981 6.536 Q 204.176 7.274 204.705 10.314 A 7.568 7.568 0 0 1 204.81 11.61 L 204.81 12 L 201.42 12 A 4.662 4.662 0 0 0 201.345 11.324 Q 201.192 10.523 200.746 10.14 A 1.347 1.347 0 0 0 200.67 10.08 A 2.341 2.341 0 0 0 199.96 9.731 Q 199.636 9.632 199.245 9.594 A 5.262 5.262 0 0 0 198.735 9.57 A 5.013 5.013 0 0 0 198.05 9.614 Q 197.303 9.717 196.86 10.065 Q 196.23 10.56 196.23 11.16 A 3.151 3.151 0 0 0 196.303 11.87 Q 196.548 12.925 197.61 13.11 L 201.24 13.77 A 5.145 5.145 0 0 1 203.139 14.497 Q 205.059 15.76 205.08 18.862 A 10.163 10.163 0 0 1 205.08 18.93 Z M 220.11 18.93 L 220.11 19.38 A 5.01 5.01 0 0 1 219.746 20.94 A 4.05 4.05 0 0 1 218.205 22.77 A 6.645 6.645 0 0 1 215.925 23.707 Q 214.988 23.91 213.9 23.91 A 16.707 16.707 0 0 1 212.138 23.824 Q 210.291 23.627 209.185 22.983 A 3.747 3.747 0 0 1 208.56 22.53 A 4.023 4.023 0 0 1 207.369 20.564 Q 207.15 19.781 207.15 18.81 L 207.15 18.45 L 210.69 18.45 Q 210.69 19.217 210.912 19.715 A 1.489 1.489 0 0 0 211.41 20.34 A 2.101 2.101 0 0 0 211.954 20.606 Q 212.513 20.795 213.373 20.838 A 10.663 10.663 0 0 0 213.9 20.85 Q 216.246 20.85 216.299 19.187 A 2.44 2.44 0 0 0 216.3 19.11 Q 216.3 18.328 216.052 17.829 A 1.466 1.466 0 0 0 215.46 17.19 A 2.373 2.373 0 0 0 215.063 16.997 Q 214.798 16.896 214.47 16.83 L 211.44 16.32 A 5.539 5.539 0 0 1 209.616 15.725 Q 208.083 14.876 207.65 13.002 A 7.264 7.264 0 0 1 207.48 11.37 A 5.256 5.256 0 0 1 207.727 9.72 A 4.241 4.241 0 0 1 209.235 7.635 A 5.944 5.944 0 0 1 209.262 7.614 Q 210.355 6.793 211.812 6.485 A 9.07 9.07 0 0 1 213.69 6.3 A 10.36 10.36 0 0 1 216.011 6.536 Q 219.206 7.274 219.735 10.314 A 7.568 7.568 0 0 1 219.84 11.61 L 219.84 12 L 216.45 12 A 4.662 4.662 0 0 0 216.375 11.324 Q 216.222 10.523 215.776 10.14 A 1.347 1.347 0 0 0 215.7 10.08 A 2.341 2.341 0 0 0 214.99 9.731 Q 214.666 9.632 214.275 9.594 A 5.262 5.262 0 0 0 213.765 9.57 A 5.013 5.013 0 0 0 213.08 9.614 Q 212.333 9.717 211.89 10.065 Q 211.26 10.56 211.26 11.16 A 3.151 3.151 0 0 0 211.333 11.87 Q 211.578 12.925 212.64 13.11 L 216.27 13.77 A 5.145 5.145 0 0 1 218.169 14.497 Q 220.089 15.76 220.11 18.862 A 10.163 10.163 0 0 1 220.11 18.93 Z M 37.14 6.54 L 37.14 23.67 L 34.23 23.67 L 33.33 21.63 L 28.53 23.85 A 4.771 4.771 0 0 1 25.082 22.411 A 6.164 6.164 0 0 1 25.035 22.365 A 4.746 4.746 0 0 1 23.866 20.367 Q 23.634 19.616 23.572 18.707 A 10.022 10.022 0 0 1 23.55 18.03 L 23.55 6.54 L 27.45 6.54 L 27.45 17.19 A 5.23 5.23 0 0 0 27.544 18.23 Q 27.871 19.835 29.336 20.017 A 3.194 3.194 0 0 0 29.73 20.04 L 33.24 18.15 L 33.24 6.54 L 37.14 6.54 Z M 262.98 16.02 L 252.99 16.02 A 11.834 11.834 0 0 0 253.047 17.221 Q 253.171 18.438 253.57 19.184 A 2.82 2.82 0 0 0 253.725 19.44 A 2.093 2.093 0 0 0 254.609 20.159 Q 255.397 20.52 256.68 20.52 A 3.582 3.582 0 0 0 257.507 20.431 Q 258.109 20.288 258.524 19.917 A 2.166 2.166 0 0 0 258.81 19.605 Q 259.33 18.915 259.458 18.268 A 2.15 2.15 0 0 0 259.5 17.85 L 263.01 17.85 A 9.442 9.442 0 0 1 262.858 19.605 Q 262.498 21.505 261.285 22.56 Q 259.565 24.056 256.742 24.06 A 10.76 10.76 0 0 1 256.725 24.06 A 15.998 15.998 0 0 1 255.08 23.981 Q 253.417 23.809 252.348 23.259 A 4.769 4.769 0 0 1 252.33 23.25 Q 249.558 21.825 249.18 16.33 A 26.828 26.828 0 0 1 249.12 14.49 A 15.559 15.559 0 0 1 249.265 12.29 Q 249.427 11.16 249.769 10.254 A 5.897 5.897 0 0 1 250.95 8.295 Q 252.507 6.623 255.456 6.374 A 12.77 12.77 0 0 1 256.53 6.33 Q 263.04 6.33 263.04 13.56 Q 263.04 14.311 262.984 15.896 A 197.604 197.604 0 0 1 262.98 16.02 Z M 238.89 7.2 L 238.89 10.17 L 235.71 10.17 L 235.71 23.67 L 231.81 23.67 L 231.81 10.17 L 230.19 10.17 L 230.19 7.2 L 231.81 7.2 L 231.81 5.55 Q 231.81 3.72 232.98 2.4 A 3.77 3.77 0 0 1 234.939 1.243 Q 235.549 1.09 236.273 1.081 A 7.353 7.353 0 0 1 236.37 1.08 L 238.89 1.08 L 238.89 4.38 L 237.06 4.38 A 1.855 1.855 0 0 0 236.518 4.452 Q 235.921 4.635 235.765 5.277 A 2.178 2.178 0 0 0 235.71 5.79 L 235.71 7.2 L 238.89 7.2 Z M 189.09 6.42 L 189.09 23.67 L 186.48 23.67 L 185.28 21.6 L 181.11 23.85 A 7.394 7.394 0 0 1 179.377 23.662 A 4.168 4.168 0 0 1 176.43 21.33 A 9.338 9.338 0 0 1 175.607 18.686 A 10.637 10.637 0 0 1 175.605 18.675 A 18.78 18.78 0 0 1 175.384 16.089 A 20.914 20.914 0 0 1 175.38 15.705 Q 175.38 14.16 175.41 13.425 A 16.175 16.175 0 0 1 175.445 12.84 Q 175.473 12.486 175.517 12.087 A 29.829 29.829 0 0 1 175.56 11.715 A 11.341 11.341 0 0 1 175.665 11.028 Q 175.764 10.493 175.905 10.08 A 6.526 6.526 0 0 1 176.22 9.323 A 8.347 8.347 0 0 1 176.55 8.715 A 3.873 3.873 0 0 1 177.104 7.987 A 3.28 3.28 0 0 1 177.57 7.59 Q 178.92 6.66 181.08 6.66 L 185.19 6.66 L 189.09 6.42 Z M 82.71 6.6 L 81.63 10.44 Q 81.18 10.26 80.61 10.26 A 4.515 4.515 0 0 0 79.497 10.412 Q 78.452 10.679 77.157 11.413 A 16.3 16.3 0 0 0 76.92 11.55 L 76.92 23.67 L 73.02 23.67 L 73.02 6.54 L 75.93 6.54 L 76.83 8.04 L 80.97 6.33 A 4.85 4.85 0 0 1 81.178 6.314 Q 81.394 6.302 81.683 6.3 A 16.324 16.324 0 0 1 81.78 6.3 Q 82.29 6.3 82.71 6.6 Z M 275.67 6.6 L 274.59 10.44 Q 274.14 10.26 273.57 10.26 A 4.515 4.515 0 0 0 272.457 10.412 Q 271.412 10.679 270.117 11.413 A 16.3 16.3 0 0 0 269.88 11.55 L 269.88 23.67 L 265.98 23.67 L 265.98 6.54 L 268.89 6.54 L 269.79 8.04 L 273.93 6.33 A 4.85 4.85 0 0 1 274.138 6.314 Q 274.354 6.302 274.643 6.3 A 16.324 16.324 0 0 1 274.74 6.3 Q 275.25 6.3 275.67 6.6 Z M 98.367 17.504 A 22.915 22.915 0 0 0 98.49 15.03 A 18.795 18.795 0 0 0 98.359 12.735 Q 98.211 11.532 97.894 10.55 A 7.211 7.211 0 0 0 96.885 8.505 Q 95.706 6.886 93.169 6.456 A 12.082 12.082 0 0 0 91.155 6.3 A 12.043 12.043 0 0 0 90.18 6.338 Q 89.07 6.428 88.179 6.732 A 4.933 4.933 0 0 0 85.47 8.82 Q 84.501 10.367 84.198 12.722 A 18.132 18.132 0 0 0 84.06 15.03 Q 84.06 19.26 85.47 21.57 A 4.528 4.528 0 0 0 87.274 23.27 Q 88.107 23.714 89.206 23.917 A 11.307 11.307 0 0 0 91.26 24.09 A 12.398 12.398 0 0 0 92.328 24.046 Q 94.913 23.822 96.39 22.47 A 4.448 4.448 0 0 0 97.2 21.482 Q 98.091 20.029 98.367 17.504 Z M 114.657 17.504 A 22.915 22.915 0 0 0 114.78 15.03 A 18.795 18.795 0 0 0 114.649 12.735 Q 114.501 11.532 114.184 10.55 A 7.211 7.211 0 0 0 113.175 8.505 Q 111.996 6.886 109.459 6.456 A 12.082 12.082 0 0 0 107.445 6.3 A 12.043 12.043 0 0 0 106.47 6.338 Q 105.36 6.428 104.469 6.732 A 4.933 4.933 0 0 0 101.76 8.82 Q 100.791 10.367 100.488 12.722 A 18.132 18.132 0 0 0 100.35 15.03 Q 100.35 19.26 101.76 21.57 A 4.528 4.528 0 0 0 103.564 23.27 Q 104.397 23.714 105.496 23.917 A 11.307 11.307 0 0 0 107.55 24.09 A 12.398 12.398 0 0 0 108.618 24.046 Q 111.203 23.822 112.68 22.47 A 4.448 4.448 0 0 0 113.49 21.482 Q 114.381 20.029 114.657 17.504 Z M 173.1 1.11 L 173.1 23.67 L 169.2 23.7 L 169.2 1.11 L 173.1 1.11 Z M 227.28 7.17 L 227.28 23.67 L 223.38 23.67 L 223.38 7.17 L 227.28 7.17 Z M 245.79 7.17 L 245.79 23.67 L 241.89 23.67 L 241.89 7.17 L 245.79 7.17 Z M 94.59 15.93 L 94.59 14.37 A 12.315 12.315 0 0 0 94.533 13.144 Q 94.408 11.897 94.007 11.098 A 3.447 3.447 0 0 0 93.945 10.98 Q 93.43 10.045 92.024 9.857 A 5.778 5.778 0 0 0 91.26 9.81 A 3.44 3.44 0 0 0 89.74 10.123 Q 87.96 10.989 87.96 14.25 L 87.96 15.81 Q 87.96 20.58 91.26 20.58 Q 92.657 20.58 93.421 19.896 A 2.458 2.458 0 0 0 94.05 18.99 A 6.246 6.246 0 0 0 94.438 17.69 Q 94.557 17.062 94.583 16.341 A 11.389 11.389 0 0 0 94.59 15.93 Z M 110.88 15.93 L 110.88 14.37 A 12.315 12.315 0 0 0 110.823 13.144 Q 110.698 11.897 110.297 11.098 A 3.447 3.447 0 0 0 110.235 10.98 Q 109.72 10.045 108.314 9.857 A 5.778 5.778 0 0 0 107.55 9.81 A 3.44 3.44 0 0 0 106.03 10.123 Q 104.25 10.989 104.25 14.25 L 104.25 15.81 Q 104.25 20.58 107.55 20.58 Q 108.947 20.58 109.711 19.896 A 2.458 2.458 0 0 0 110.34 18.99 A 6.246 6.246 0 0 0 110.728 17.69 Q 110.847 17.062 110.873 16.341 A 11.389 11.389 0 0 0 110.88 15.93 Z M 182.22 19.74 L 185.19 18.21 L 185.19 10.17 L 182.22 10.17 A 3.34 3.34 0 0 0 181.332 10.28 A 2.165 2.165 0 0 0 179.925 11.43 A 4.705 4.705 0 0 0 179.571 12.391 Q 179.321 13.354 179.286 14.733 A 18.121 18.121 0 0 0 179.28 15.195 A 16.205 16.205 0 0 0 179.318 16.355 Q 179.434 17.955 179.895 18.72 A 1.935 1.935 0 0 0 180.933 19.545 Q 181.287 19.673 181.73 19.717 A 4.961 4.961 0 0 0 182.22 19.74 Z M 253.08 13.35 L 259.5 13.35 A 8.278 8.278 0 0 0 259.441 12.328 Q 259.307 11.253 258.866 10.621 A 2.251 2.251 0 0 0 258.75 10.47 A 2.37 2.37 0 0 0 257.56 9.713 Q 257.071 9.57 256.455 9.57 A 4.221 4.221 0 0 0 255.395 9.696 A 3.005 3.005 0 0 0 253.995 10.485 A 2.787 2.787 0 0 0 253.354 11.525 Q 253.08 12.283 253.08 13.35 Z M 227.19 0.435 A 0.729 0.729 0 0 0 227.182 0.427 Q 226.757 0 225.36 0 Q 223.95 0 223.515 0.435 A 1.062 1.062 0 0 0 223.3 0.765 Q 223.148 1.113 223.101 1.692 A 6.938 6.938 0 0 0 223.08 2.25 A 7.023 7.023 0 0 0 223.099 2.791 Q 223.172 3.725 223.515 4.08 A 1.056 1.056 0 0 0 223.846 4.302 Q 224.197 4.46 224.781 4.509 A 6.846 6.846 0 0 0 225.345 4.53 Q 226.74 4.53 227.175 4.095 A 1.059 1.059 0 0 0 227.39 3.764 Q 227.61 3.257 227.61 2.265 Q 227.61 1.279 227.4 0.772 A 1.069 1.069 0 0 0 227.19 0.435 Z M 245.7 0.435 A 0.729 0.729 0 0 0 245.692 0.427 Q 245.267 0 243.87 0 Q 242.46 0 242.025 0.435 A 1.062 1.062 0 0 0 241.81 0.765 Q 241.658 1.113 241.611 1.692 A 6.938 6.938 0 0 0 241.59 2.25 A 7.023 7.023 0 0 0 241.609 2.791 Q 241.682 3.725 242.025 4.08 A 1.056 1.056 0 0 0 242.356 4.302 Q 242.707 4.46 243.291 4.509 A 6.846 6.846 0 0 0 243.855 4.53 Q 245.25 4.53 245.685 4.095 A 1.059 1.059 0 0 0 245.9 3.764 Q 246.12 3.257 246.12 2.265 Q 246.12 1.279 245.91 0.772 A 1.069 1.069 0 0 0 245.7 0.435 Z" vector-effect="non-scaling-stroke"/></g></svg>